<svg id="campaign-24px" xmlns="http://www.w3.org/2000/svg" width="20" height="20" viewBox="0 0 20 20">
  <path id="Path_269" data-name="Path 269" d="M0,0H20V20H0Z" fill="none"/>
  <path id="Path_270" data-name="Path 270" d="M14.8,9.25v1.5H18V9.25Zm-1.6,4.958c.768.532,1.768,1.237,2.56,1.792.32-.4.64-.8.96-1.2-.792-.555-1.792-1.26-2.56-1.8C13.84,13.405,13.52,13.81,13.2,14.208ZM16.72,5.2c-.32-.4-.64-.8-.96-1.2-.792.555-1.792,1.26-2.56,1.8.32.4.64.8.96,1.2C14.928,6.46,15.928,5.762,16.72,5.2ZM3.6,7.75A1.557,1.557,0,0,0,2,9.25v1.5a1.557,1.557,0,0,0,1.6,1.5h.8v3H6v-3h.8l4,2.25v-9l-4,2.25ZM12.8,10a3.273,3.273,0,0,0-1.2-2.513v5.018A3.246,3.246,0,0,0,12.8,10Z" fill="#818181"/>
</svg>
