<svg id="phone_iphone-24px_1_" data-name="phone_iphone-24px (1)" xmlns="http://www.w3.org/2000/svg" width="30" height="30" viewBox="0 0 30 30">
  <path id="Path_271" data-name="Path 271" d="M0,0H30V30H0Z" fill="none"/>
  <path id="Path_272" data-name="Path 272" d="M20.346,1H8.654A3.444,3.444,0,0,0,5,4.182V25.818A3.444,3.444,0,0,0,8.654,29H20.346A3.444,3.444,0,0,0,24,25.818V4.182A3.444,3.444,0,0,0,20.346,1ZM14.5,27.727a2.063,2.063,0,0,1-2.192-1.909A2.063,2.063,0,0,1,14.5,23.909a2.063,2.063,0,0,1,2.192,1.909A2.063,2.063,0,0,1,14.5,27.727Zm6.577-5.091H7.923V4.818H21.077Z" transform="translate(0 0)" fill="#0063c0"/>
</svg>
