<svg id="laptop_mac-24px" xmlns="http://www.w3.org/2000/svg" width="30" height="30" viewBox="0 0 30 30">
  <path id="Path_273" data-name="Path 273" d="M0,0H30V30H0Z" fill="none"/>
  <path id="Path_274" data-name="Path 274" d="M25,23.294a2.607,2.607,0,0,0,2.488-2.706L27.5,5.706A2.617,2.617,0,0,0,25,3H5A2.617,2.617,0,0,0,2.5,5.706V20.588A2.617,2.617,0,0,0,5,23.294H0A2.617,2.617,0,0,0,2.5,26h25A2.617,2.617,0,0,0,30,23.294ZM5,5.706H25V20.588H5ZM15,24.647a1.357,1.357,0,1,1,1.25-1.353A1.308,1.308,0,0,1,15,24.647Z" transform="translate(0 0)" fill="#0063c0"/>
</svg>
