<svg xmlns="http://www.w3.org/2000/svg" width="30" height="30" viewBox="0 0 30 30">
  <g id="Group_68" data-name="Group 68" transform="translate(-360 -1680)">
    <rect id="Rectangle_770" data-name="Rectangle 770" width="30" height="30" transform="translate(360 1680)" fill="none"/>
    <path id="Icon_awesome-youtube" data-name="Icon awesome-youtube" d="M22.2,6.876a2.714,2.714,0,0,0-1.91-1.922C18.6,4.5,11.85,4.5,11.85,4.5s-6.755,0-8.439.454A2.714,2.714,0,0,0,1.5,6.876a28.472,28.472,0,0,0-.451,5.233A28.472,28.472,0,0,0,1.5,17.342a2.674,2.674,0,0,0,1.91,1.891c1.685.454,8.439.454,8.439.454s6.755,0,8.439-.454a2.674,2.674,0,0,0,1.91-1.891,28.472,28.472,0,0,0,.451-5.233A28.472,28.472,0,0,0,22.2,6.876ZM9.641,15.321V8.9l5.645,3.212L9.641,15.321Z" transform="translate(363.15 1682.906)" fill="#0063c0"/>
  </g>
</svg>
